v 19.369380901429164 15.05051796939875 -14.48409778895768
v 18.144349371713897 16.583898518178636 -15.241529224048424
v 25.72883121077208 6.348630066358236 -15.974203149067494
v 16.071969691770555 11.966039021695668 -15.883647753751053
v 15.41484615187627 -4.342314111814105 -14.837779033732858
v -4.610080739401603 -3.315476242919715 -8.725015201240495
v -1.7000316757245102 -7.731849399508775 -15.909901599033072
v -1.1509816588335084 -8.649422494452082 -15.936968313713754
v -4.250090194066683 -3.092171261810261 -8.346517315048338
v -23.21515993930259 -1.4875997975601116 -9.459916056993514
v -19.424471837730106 -8.745027839027475 -12.258220485200638
v -18.498128384320555 -9.439857974621198 -12.135450967703814
v -22.3130975563972 -10.006071608139958 -14.058917789107198
v -26.460176254791037 -1.2914372856721528 -11.715795641479975
v -27.632187110496304 -5.979870382256546 -16.43601249205506
v -8.456159009184901 -4.781956960808198 -7.094562009837947
v -9.273757875860362 -1.2121058137160041 -7.491020276622908
v 2.5349435739985076 -6.218073366988502 -18.902062561589094
v 3.596519386952174 -4.8223612939946605 -15.248912635673307
v -14.859333990280671 -8.869377674481303 -11.34952140205295
v -13.991295926725737 7.4517751614022 -7.243260928556747
v 32.46253435644007 0.1217801685613189 -6.5816734183818895
v 31.924668043176133 1.2501561197442932 -12.393551732684754
v 23.957062662175993 -5.17768868305577 -10.51127164250578
v 26.83337345351136 -8.857775344296602 -8.741575114856802
v 23.00901941007331 -3.91363939233943 -16.61171982518176
v 21.868493037209852 -10.656710768478138 -16.581765579355107
v 5.52603067561866 -15.919934071779322 -13.594760082599292
v 6.48846663782172 -16.346373283941617 -13.515033448836167
v 1.1170330837245537 -12.51497978271528 -15.997523153690395
v 1.2435935559130122 -16.824369122729458 -11.013455754056292
v -3.333042126820363 -13.051316448946135 -12.444036892390692
v -2.39198647290295 -17.06455310956336 -7.331363939618996
v -7.856922927659397 -13.40396543149011 -11.314313119068377
v -7.059192572230906 -17.43846790995204 -6.188185156237129
v -11.161224923833611 -17.780411045907584 -6.025402016428924
v -15.805148136255493 -12.751130317827759 -12.475664602481018
v -17.138703233300514 -12.13054640757441 -12.251143644475206
v -12.057402400149126 -18.584013909108542 -5.707832081219141
v -18.785534877494886 -12.812917723622729 -14.34927539579187
v -20.59901955459466 -14.297054509766728 -14.107061302196053
v -24.93564071406724 -21.165105853399986 -11.54774369369793
v -29.786684796821984 -15.914467001073062 -17.796688415498796
v -31.5911779075149 16.837662946969676 -12.99946733282847
v 30.634711597505504 -18.814512426505626 -5.991098318778899
v -22.375448567495773 -10.661469017615154 -16.517580366910007
v -32.516948110129675 -3.557883617080332 -13.005520638847656
v -33.13897625170431 -9.83696509627542 -13.01732333738887
v 17.380023218947343 -6.91770198469953 -18.649767731861957
v 15.548094205176746 1.1039535941233645 -20.017773425224423
v 12.013530291055588 6.172133481087275 -16.832089111524112
v 11.590085710148841 -14.750681917955578 -15.117035845030156
v 12.00885547610963 -9.450445431425198 -19.367566079888093
v 10.912830428219964 -2.3414596547580224 -20.2729254092627
v 8.104385457058756 1.9145865749866928 -16.72147617140498
v 7.342315927476568 -6.562685508437102 -15.954392926081006
v -33.10227105237112 1.3839432712710682 -12.900744407352702
v -27.11610091121795 4.289907487449721 -11.018530423759378
v -23.79472648898015 5.7052787834064205 -9.726700905110661
v -21.584707884480974 7.498253626638487 -9.116804443521099
v -19.124706047490886 9.361552413999355 -8.558634661094288
v -16.7836518776549 2.4890209146129365 -9.639168003972355
v -13.071490622428431 11.425841779629849 -9.337265444188898
v -14.801801189596116 5.648363083368025 -10.767530867857106
v -11.158661992045516 12.898854233437664 -10.142287408017895
v -12.837147187345533 8.737762826521106 -12.315468690373455
v -9.63698408944633 15.174470380169442 -11.541751641560621
v -10.887409256633315 11.820904336645015 -13.021522501420652
v -7.719903213431959 17.455781217301602 -12.920480146669462
v -9.341164899041825 15.255435315765364 -13.70067835196335
v -6.952539452072358 20.48651861932685 -11.964853312075363
v -6.894501878250615 18.31048593858874 -14.74856993199511
v -4.548284862948556 24.435802682378636 -13.109389089559283
v -3.826964409786253 22.399146928142965 -15.712983543873282
v -1.4902271439965418 33.255537103189695 -14.700889518758064
v 7.170817508140548 33.08030577126666 -16.166734238166523
v 8.794875270291264 28.577059775754797 -19.04965363210831
v 4.134612441094429 30.46084646058403 -15.23399844883215
v 4.1293973939698745 15.905755239056983 -10.426496898645276
v 8.045152912434038 11.618255789824868 -11.941485206549673
v 4.612556323938257 8.52635589948079 -11.39744837749777
v 1.5190197439342548 5.272343652752227 -11.769352051156941
v -1.7537814376373575 2.2090529561330676 -10.411766604021405
v -4.320078462502963 -0.6034644059478111 -8.432757857099624
v -7.109530749832995 1.150929205161237 -9.78277579300389
v -13.008396990993567 31.452472836544494 -10.857931058112904
v 9.116643807365872 26.97350227069368 -15.951957752448838
v 6.663678065554063 20.597896336494507 -14.728618848673063
v 1.575950530037641 17.074484950685772 -13.54790566671153
v -2.175353359592819 13.947078067268503 -12.687288227399936
v -4.673351063305255 10.242930068570356 -12.067855980338425
v -5.4577418345295 6.831697013081726 -12.534496029177884
v -7.560734842754332 3.823322002584412 -11.082739502242605
v -9.484670100972622 18.69019394376174 -8.130617408543628
v 8.595788842832185 21.97968065434173 -15.99956281992652
v 1.8050020786125565 24.194304400921283 -17.17942510346683
v -0.07528238003823873 26.40954186117887 -14.003106748288124
v -3.743236124545067 37.53288282854421 -20.299115734675617
v -31.565837242052986 42.67223465457913 -23.135082662365782
v -28.27736981418379 33.32719951324064 -31.875588746515028
v -28.234232040113806 31.826848871220324 -32.18625771435046
v -30.544579126890362 43.950752379364445 -22.595540325702444
v -25.113876476729626 43.87337281825587 -38.95687223986017
v -21.846677805139063 35.50618013824433 -46.55972998544399
v -23.396508608160506 34.67844516931147 -47.899572917049746
v -26.338794251672628 40.86931452511949 -38.53559953966548
v -20.158716931115187 35.73824645103017 -52.79281943725887
v -20.551502700068887 39.138020275487044 -55.90729708508956
v -37.372587030517494 40.525451705742725 -19.24947393647573
v -34.16544507600847 30.69070885292994 -19.249477206114857
v -32.80707754728451 28.799168084563252 -19.249456619920085
v -35.76346324258151 33.297182092665395 -11.330987491441174
v -23.910742404628976 33.04841532980273 -48.84694407574301
v -25.387484966460836 32.05489334716911 -41.64138970522249
v -27.04258229262629 30.799222597499497 -33.4176215594328
v -28.356808335805464 29.325633516713633 -24.772510263774738
v -29.74433819425027 26.449296252604096 -15.874633068182426
v -34.542808045422134 28.161619757443898 -11.330724220573195
v -31.755071184343823 43.95335140909897 -11.329157204966767
v -36.952796490388934 44.676086351639995 -11.331221330829845
v -33.808576411472444 45.1447126254625 -11.3307165933203
v -31.625939439993765 47.41690574877022 -15.974571833875821
v -28.32426717241199 49.64176599574813 -24.767157558204442
v -24.271770112109873 49.972750240977376 -32.63471873135238
v -20.214806136357364 46.11484625133734 -39.52771868842393
v -20.711776475646825 44.16172534430703 -39.730791994252314
v -21.114387542753867 34.05345627190812 -39.23371313156323
v -20.23210408934322 36.06515480114012 -53.23988735346648
v -19.630029318511987 40.84132289134668 -52.52729917195749
v -21.235070360011747 42.81014566861021 -48.46026374848489
v -18.196234860771703 46.239127266385985 -52.23791620297399
v -15.917409920919237 36.525324702023184 -40.68134387561611
v -14.315652506893581 35.48979779016513 -40.60580575789041
v -17.37640511254063 43.56348726584875 -42.38297319090721
v -20.456593393523498 50.91388557111061 -36.678297466463874
v -18.104520368693624 48.31928814010358 -35.11352334642234
v -20.26841674506189 30.96698635704242 -36.6134412236367
v -18.562790211529048 31.791692549380674 -36.02555787852577
v -15.036220621071134 52.175766262287624 -34.09725240335983
v -13.013738452245168 51.54901487140194 -32.74536191461506
v -11.302097984437761 48.97862141514622 -32.21400177170126
v -8.282800608942392 48.24073667790002 -35.37852891340519
v -12.299368260383691 46.40520042088242 -32.531036183358765
v -7.214623371375165 42.65671361262041 -35.038950355949
v -10.768209413476189 43.26373541925288 -32.03150655580812
v -8.050703711689113 38.826592647740654 -31.167606356230007
v -9.314930073967805 33.396737908249904 -31.56978523748483
v -22.96417439666473 35.99019890998716 -48.252280624317436
v -23.00108476492027 35.778725472698 -49.89488555814837
v -23.523307906178136 32.884429112086856 -49.03550880657578
v -21.149362340852317 40.93612671240345 -53.519742505869395
v -21.292571952012604 40.887831356276955 -50.4411536613984
v -22.339847540217242 44.16173104417359 -48.218844713684135
v -21.114481951896813 35.41922080728193 -39.233473934552094
v -9.42473727168402 39.9815021748783 -36.84357469330441
v -11.199607759972917 47.49187904891798 -37.40781398849575
v -14.873584119351538 52.50392988423131 -33.336610016483576
v -15.801986491087188 31.469655224273193 -33.631754155467526
v -18.219422017500587 35.49595291266165 -48.915463017409174
v -18.828682096807963 41.83453825675964 -49.19435994740148
v -21.307387493066766 46.94290153704638 -43.52925465833262
v -20.344713827328032 45.52101843632292 -43.088600677442244
v -17.72175036757355 40.841323383049776 -52.457049243624375
v -18.739491850425793 35.63049285327563 -53.01471308775328
v -22.39832465730266 32.286311389041884 -49.09796311729192
v -9.433126864974042 6.0773138519620815 -71.75320429485083
v 19.37967625514942 3.906303247762491 -37.66297343557656
v 11.362422867527084 20.562542420648917 -36.722737993427984
v 14.214147938616637 21.17288915979728 -36.07537012217729
v 21.295541425166583 41.56730350291312 -33.18049563828432
v -30.61038645184874 46.20844787519633 -25.891293884401193
v -20.54258466367496 39.9375131567288 -28.421963442791707
v -17.960671152787477 31.950065294013143 -29.527915399512995
v -28.74218272151328 75.28102006764931 -19.87115305689644
v -23.998753876229923 75.4086279095099 -39.264440745410454
v -22.584489735140703 70.272520649632 -41.26787498064753
v -24.161663475330318 69.57680190501722 -32.79484472799315
v -27.649357972504372 20.414544452474004 -42.1219508915887
v 7.234688183099848 3.3355802947152675 -36.644591841888854
v 2.3724622585378867 34.83289960267024 -33.410842093569954
v -13.989828502708612 22.239884464618758 -31.5465415789628
v -26.774613323499104 58.76302169973093 -25.23403871516222
v -23.485842160568975 52.30732456482997 -25.9911794359792
v -21.90997011634945 49.45179467790399 -26.194213346214887
v -30.25975407545147 56.653176012058054 -23.49061754417724
v -29.761703612859403 65.05854497336864 -22.4922663503013
v -24.296392967132526 63.72926699349834 -28.64661200574205
v -28.350282643943196 77.95235765119071 -22.633898027166623
v -21.408146252003277 77.96040450292665 -41.67606224400781
v -22.203586020069867 -1.728860329067615 -41.66226130284305
v 22.733280348832274 -6.264098037491266 -24.81669744369797
v 15.028341495219898 -8.915386805780177 -24.132957250122534
v 4.149753440956026 -7.826669420977172 -22.814097670809293
v -8.627934278792434 4.549250058088127 -34.28671623336041
v -6.015279832396708 7.5713854648697705 -21.02657031338688
v -28.416960403238082 13.59330903604289 -30.555013022696706
v -22.47727701662782 7.016851465042954 -32.19195725673464
v -14.587833385144137 -3.0238081510034185 -19.87688341280257
v -16.303714074923043 28.24749084296196 -19.450971706542088
v -34.0005719105101 17.2445953244116 -17.217360459092298
v -31.205518064265625 38.015430079796246 -17.757475678309255
v -35.12176053540711 46.81168840966707 -16.166476623198673
v -35.085788488626896 54.804874934786795 -15.863405204624275
v -33.965342218126295 62.564869686159696 -16.076233177191412
v -32.56194124972748 68.6186023229294 -22.112398331632782
v -30.345177106052436 74.76012841494568 -28.612884430813153
v -26.404881079764376 77.3308614170423 -37.52351713215378
v -23.536329482583362 76.83874152331074 -41.786662087567606
v -20.84626048220397 75.21302670169081 -41.532519866104714
v -20.91953401805242 70.32375863476757 -37.2533127520271
v -21.484758489615867 65.25019525837371 -28.96971019595487
v -20.396914010132996 59.49003985953709 -23.382099408916865
v -17.1806791990838 54.259686642508015 -18.802205454016217
v -13.305228755265958 44.43236266349136 -19.36436290385057
v -6.387436394769452 49.31284611210732 -21.24618580800162
v -9.931658470414455 40.47607173916337 -20.086689386956962
v -2.9268561300110534 28.920543001360226 -34.33244205570807
v -7.4190502492486985 38.86826002305018 -21.144191372370315
v 3.937106868751826 36.87738552260669 -22.82378588742192
v 6.633086560818985 25.43231247597753 -36.17053114635168
v -4.9523324060063985 22.46998325275884 -34.82173034990949
v 2.6194928509825495 34.671297824025615 -22.074322682005977
v 12.790104947753601 31.413911680903993 -23.61634273649589
v 17.108361787196422 29.483764071913587 -24.05776294365841
v 20.471774216238764 28.782656585144956 -24.33216983255724
v 24.080015014165287 34.19297133865619 -24.551788898243466
v 38.50871911858847 33.70340810452018 -25.81428136534703
v 45.92815089884691 29.155878142918414 -26.52205124683027
v 47.229211172486984 27.021712938549893 -32.74970826093201
v 38.393855243347616 23.15796624183498 -25.904017168856818
v 46.974191380744195 18.777912076731543 -31.995278048748638
v 38.970122690497085 17.488159774580648 -26.0088759250408
v 46.706098310556676 13.123494008006208 -26.74221648844075
v 39.129836724610946 3.692863094390777 -26.153770344343606
v 28.137602984094315 10.391044145675185 -35.80076854506071
v 27.09396824832796 23.335327221542844 -35.584755846341764
v 27.628024086507175 30.645903563236462 -24.873618756218875
v 27.616303290100433 8.700500329520825 -25.081118985584627
v 33.668305854813184 14.533214083963571 -33.76303324594164
v 32.99446546619587 25.484147235252223 -34.34254063820885
v 33.23259701843821 32.82123287185462 -25.350483555654844
v 31.928988369363587 30.851810683025654 -39.86170340739104
v 22.105166144412784 33.2846297395344 -34.95380748179455
v 21.805473030111994 32.61409146304648 -34.900688988612615
v 13.902559955412174 35.78035565188769 -32.0373607521107
v 15.364796762458305 2.085985225028203 -30.373662228536567
v 17.27581829281511 3.8107412623839814 -32.13611695264886
v 15.607619987286164 4.2881801957585175 -31.56864632660416
v 20.291914090793206 -0.2024544794740919 -31.436159331205204
v 23.439915931654472 38.050258202902626 -34.77828478564451
v 18.36496576612972 38.6209913912995 -33.28106159875428
v 23.089689233654475 40.876734580478 -34.65369929409863
v 22.959397209762294 41.32188782730863 -34.572693992719934
v 24.984690620056597 40.130646662474604 -35.34094391514756
v 24.02737684879589 39.73105381468359 -35.05985301666406
v 20.246283775096988 23.30813964846607 -35.19478917432561
v 20.630855609237436 22.740333224180063 -35.236324336071455
v 11.978373012859688 26.306982988021893 -32.16347776330881
v 12.090530199019499 26.9425759818655 -32.15665610805928
v 21.234644763456185 29.4794432222367 -34.893930212587456
v 12.682824453532074 30.495180533445765 -32.06403096173847
v 20.78369736454003 6.943006685545367 -34.21595853829282
v 13.211594678138916 8.016806642681193 -31.59459357063478
v 20.045939245652782 0.8007598008084038 -30.338002915397425
v 24.63986619134238 2.8916509913355064 -30.799300924229314
v 26.61976318984411 17.75245074099394 -28.593441015919318
v 28.827048672992433 15.481099773430937 -30.18773711893212
v 28.713188549915916 20.07419117368385 -28.416860422668847
v 30.346884640505607 22.606020578107763 -28.327938997504024
v 30.978344735664805 25.404217565066133 -28.28620513415595
v 31.04202532930801 28.21296147668253 -28.745770817533653
v 30.062719215360698 38.62371314028057 -32.80088075284241
v 28.024079444665507 34.20129336939745 -30.129766677395956
v 28.026987039960236 12.603273452247354 -30.6527339826647
v 27.113748967790432 10.053292583874999 -30.331452591417083
v 24.88810554674546 16.414645671667277 -37.066186902687264
v 19.971753339404813 19.877456560201676 -35.219545891382566
v 20.135046573908042 16.056364029301093 -35.61201817626173
v 11.493405810651643 19.575752560706082 -32.561408473284004
v 13.262681701342993 8.211352264849452 -25.86390246060525
v 26.291535161372654 5.416119434576476 -30.615288106150018
v 24.540933635026 10.540860456741118 -35.76539948859678
v 19.110483767078538 13.700749983100724 -34.56653389171808
v 19.42755897587253 10.050179695022603 -34.2077990369279
v 12.096503242585236 13.303131848167947 -32.392733616999905
v 12.10382812359932 6.96610765245909 -29.811551329519386
v 33.98035054939546 0.2739717349133741 -31.49350091536644
v 35.238220488649944 -1.6293842687302273 -33.3316116528476
v 29.719785136319757 4.291390784282836 -36.867330109361106
v 30.575588294637544 3.9550990720154537 -29.084296875071797
v 38.31791880387594 9.117100099596524 -37.039329674175704
v 38.70149686180933 8.263968392224374 -30.285724816198517
v 42.178473181972876 13.20411463504735 -36.63940656724273
v 39.09145113189767 29.133647344758092 -41.59028395595487
v 35.648598757425894 23.564484626878606 -40.669173251226226
v 35.55113147637056 30.81749225977848 -39.99166053064783
v 30.488676173909436 24.88716960862391 -38.82097177104291
v 30.440594489186132 19.6552975570068 -39.24742322899631
v 28.772748439629098 20.809399601268108 -38.62114627815441
v 18.041197281151863 14.607394035944662 -35.57910271527042
v 24.098248208860316 9.473463744067981 -38.013592709891284
v 21.27093660238043 14.26562689885289 -36.67467138477733
v 16.810981813100227 9.726441082650066 -35.585466687927415
v 16.160084103327534 14.141226795844009 -34.998996067739284
v 29.192991340816697 10.81909926405243 -39.56833675740531
v 26.085717972358964 18.12636982529759 -37.98852732085521
v 36.38113897582585 12.909945990488627 -28.824404490884394
v 44.40536125276677 18.357709396655824 -36.77488010803923
v 40.791876360147356 35.08359596151816 -41.46496517414623
v 30.324587925050785 31.288437650842443 -38.29756984353727
v 20.954384991065755 35.45113662311471 -34.86397667693357
v 20.93874315073206 26.496030509966264 -35.57829768751601
v 20.167157182054975 35.669248332162226 -34.78819321069741
v 38.220643886902934 18.28632443958512 -29.702187741058978
v 45.65083332597203 24.013318998286007 -37.4991006264681
v 41.35525773519221 -2.7039436396015653 -37.1098420013365
v 25.010035299808642 3.1253378693816423 -36.14643696847159
v 23.889872586256885 -2.0132600740246716 -33.66203836764654
v 19.242867462692022 3.1753215812447984 -35.11628144388412
v 20.133210454785903 39.806669624475646 -31.853930270955942
v 38.7933277308051 37.183448590296024 -34.224546898154884
v 41.50739907809096 35.92046457020734 -39.16503978402078
v 38.21061888776556 40.51072303139087 -40.07130898946564
v 34.32632492257707 41.510715709207744 -38.68205266896648
v 29.664278076373108 40.87210616673126 -37.224934723289934
v 25.897751314757013 25.775212832715585 -26.02030202480494
v 44.796724239317754 57.435257662043355 -43.75388776645598
v -34.37004076059864 54.373664351839814 -47.57758590370081
v -34.65158804001689 45.691071832662885 -46.71455004921505
v -35.02232859663512 44.82722611616197 -47.033471254959096
v -33.7253883411947 55.35591445265907 -47.0892164061438
v -34.858824257896345 54.92094435782471 -44.72932676699786
v -34.697983971700324 47.111448574013934 -43.965539890962205
v -36.72858474393 46.605448188661626 -44.57961230888478
v -35.81161413329356 52.958256655964476 -43.941354923665365
v -35.9997075869049 47.14278112031473 -42.68996119579641
v -37.65251119084565 51.19924881532909 -45.233895631428574
v -38.61805414228361 51.93002451367232 -48.69312588976626
v -35.06496965000095 43.6358771467915 -48.693122278211845
v -33.82138957002422 42.47206241248796 -48.69309850978223
v -37.4071763872827 44.70176475273341 -40.77463756368374
v -37.020621280110134 44.74427635457521 -37.334071732049246
v -36.348072817242695 44.064682591104585 -37.829796525645975
v -35.0802636979206 43.182884657618715 -38.64032736596652
v -33.87092347172876 42.06300018761165 -39.47472689276515
v -32.53777824901897 39.055698938851016 -40.33528484421904
v -36.343689148026115 40.447202649852414 -40.77436906274676
v -32.838052444459564 56.36296721117181 -40.772810606142016
v -38.48081985917422 56.87193706397403 -40.774877298998234
v -34.90843404985051 58.016150547745625 -40.77437222050225
v -33.42176180141654 59.54165791182452 -40.33146852240843
v -32.64649587060032 60.615975262392936 -39.49060541447015
v -31.018732884846333 59.57270093745913 -38.72812101522074
v -30.887349774040633 57.76892557786958 -37.99508136916758
v -30.63631262828483 55.56627025715264 -38.0026800710722
v -31.149973909260055 45.37391471576629 -38.199904651350266
v -36.20691058833545 47.035027518259184 -42.65055120336183
v -35.85139641908798 52.64894741656145 -42.70940195315674
v -34.38082553545007 53.89947806688175 -37.518155895125545
v -33.6697451382956 56.394782060715514 -43.41078841616895
v -27.320589937375875 47.92986482683948 -47.853692103043834
v -25.905894358958424 46.89433869164523 -48.258020001120485
v -29.42346964040184 54.96802467410555 -48.06990605968104
v -30.48453344601606 52.77891140225428 -47.757799324820965
v -35.29714986263554 52.35042205730038 -43.30256632007775
v -36.13462854187033 47.14277917197931 -42.69907035919785
v -37.5869132393902 47.11144331526216 -43.402166200086484
v -36.52416811200804 44.70173309188593 -37.8260460591914
v -37.02066823688336 44.74427253967506 -37.33538292319755
v -36.3481143190873 55.9664781752943 -37.83110650684651
v -35.57797220808766 57.06711184728704 -37.45668829335685
v -33.89105722951888 60.492309042987046 -37.28474392293457
v -27.975633664492104 59.62706016713962 -41.884740992017996
v -30.266551607023512 42.37153080834059 -41.70424512938931
v -28.577900608425864 43.196233173911395 -41.64224713178017
v -24.66998114599954 61.15374375775791 -41.8187748283091
v -22.159777937853693 59.36684588825128 -42.00196777972386
v -19.191613864208758 56.77815829428613 -41.94504460224718
v -16.91694144810442 56.90098774876817 -45.823687675867646
v -21.17198792791223 52.94779071287613 -41.99114789521911
v -16.1527345039318 50.876364594579115 -45.8058930108562
v -19.384846000510652 50.229483538114096 -41.937367027377846
v -16.87041776253039 47.74486850333929 -41.87883086391567
v -18.355556257167176 44.14153260163921 -41.913672124013544
v -35.500607958867484 47.03502654688939 -42.722906908462384
v -35.85144200157555 52.64894360168761 -42.71071312832534
v -34.380874473562805 57.8171064325223 -37.51946614240269
v -33.245698669431405 45.71713847990756 -37.0451836569002
v -20.078716514511616 49.512164182759804 -46.94780734220241
v -21.59799299992039 57.13969242081754 -46.98318392877631
v -23.998352077792763 61.37064127684209 -42.04476998711804
v -24.965035061276073 42.87420259627518 -42.06727436781753
v -32.68919058700047 46.90048941865602 -45.794614295686905
v -33.36381754635195 53.23906929654342 -45.787899192825876
v -33.19695400429909 58.764909388915854 -39.56403492963932
v -32.23689262946923 16.97244256946047 -45.95596032036691
v -43.332321494679015 4.492508299987286 -34.371662832042944
v -39.97443099105203 -1.740082115471239 -39.40241741452388
v -37.752171955269276 -2.8993069179826385 -35.81312949693371
v -40.751558229417704 -3.237303726855096 -31.83352330740677
v -43.13022452641137 1.352272182527411 -27.960695010508346
v -45.63350604571899 8.637957528207235 -31.401249429552273
v -36.756626869697605 -0.2128787260652203 -44.31005658293328
v -33.49374052154663 -5.159914981194142 -40.62696252549078
v -47.35159093515453 3.6232971480666336 -29.489950570675106
v -47.190142305744686 0.08458427797336299 -31.13061538232094
v -47.09621961318045 8.534916050411876 -29.213370693041846
v 0.7322176071457882 0.7740252906487477 -53.728826523581965
v -3.6026234114894855 0.32516157696617753 -58.47760519851831
v -7.119924624596049 -3.0671478098080662 -52.527446312447836
v -5.82981354633192 -6.301258259424241 -51.963363684425744
v -12.279545567013312 -3.60029686171503 -57.21535051946841
v -12.44252726990305 -9.274559092348635 -56.09424229254218
v -29.929727659019914 -13.565740279122505 -39.70931648951051
v -28.504037541530632 -14.201745938843189 -39.99875028559106
v -36.05593687501879 -11.057813726330611 -39.83693913904253
v -34.30620616545245 -14.963766808556137 -34.14897343039758
v -39.72347019386794 -10.878542585400446 -35.84764228555372
v -37.663090339376105 -14.628109453229182 -30.34358447067391
v -42.49817831890457 -10.322026224280851 -32.92506702222032
v -40.45262649372517 -13.811252048345278 -27.456896525876306
v -41.57423395233917 -10.507126210608401 -28.414989603418697
v -44.0373472054026 -4.733475237174456 -36.11073161703568
v -44.905816027110895 -4.081967929018084 -35.92833420176025
v -42.430590272242 -10.856859859917847 -28.01085712598294
v -44.21718051999876 -2.557291010436238 -39.489967810665334
v -45.21552336193501 -3.9946369586373223 -39.210054208849485
v -46.138985726012955 -8.284807379766075 -38.22470350523457
v -51.15850339887696 -0.6350971848862876 -45.730818491339974
v -52.61312428093051 5.777465750800598 -45.593515048019086
v -47.59632542521129 -0.8884355470093404 -38.17182610591344
v -49.071904632148296 3.9685460827814794 -41.34826056024376
v -46.971243015407154 -0.532085643318819 -35.33045472730076
v -46.79741605305675 -2.5256973020597293 -32.84086924278961
v -45.159740643191085 -3.9893770839684812 -33.13256218402036
v -42.59557636601528 -3.299395041253934 -36.39245279972553
v -39.45188596645433 -2.942632987318124 -40.49741970226941
v -36.34426507410703 5.915319924819688 -47.57217842750045
v -18.71815472095439 10.310827515016545 -59.60598781736646
v -13.86846381601131 12.32563939963924 -55.1965985059
v 2.4507280910957725 -15.53057543782409 -50.614588372270376
v -44.40028908184633 3.4449789577437677 -43.49976515836889
v -56.757429655626396 27.019985511605324 -40.38747173053599
v -4.426497718963045 -8.339973252570427 -51.64325735515158
v -17.83670707180521 -6.465460308797603 -55.346626854000085
v -20.285118937691454 1.8952182602721237 -56.830470548606876
v -23.631458296438094 13.221740379991651 -51.90608080092191
v -30.01753120664636 17.289708636533003 -51.42362940938951
v -22.61706378599098 11.950409306630092 -53.674791743847116
v -19.113164933988745 6.635546246937938 -53.78651445703539
v -20.9737053945698 -12.31737040469628 -48.81988175567358
v -24.137378370585783 -8.503734736912044 -51.45125193621669
v -26.25902288781793 -1.1223364560136844 -52.68442491187933
v -28.727654128455978 9.72267119022285 -47.67929820601809
v -32.10637385977529 1.443494034687177 -48.042249566457045
v -30.823809715070045 15.08703060369491 -50.33831451939686
v -12.036721953921774 -4.762175091296545 -53.95234598088994
v -49.39224271722655 2.5182766874463027 -35.19730699686794
v -51.39413489429009 2.875581662218238 -34.787022433958946
v -57.01513717204199 11.56811292208868 -36.31291955272023
v -58.97938248662271 11.71005710902228 -34.70184486220478
v -59.128796458443574 7.835842315902962 -36.1195003749982
v -56.111938392537894 15.230042754338786 -35.71541508785394
v -59.235495222160395 10.366304264365489 -37.552428778535486
v -57.459187509729844 19.265455522244682 -37.222128772218916
v -59.30887127132978 13.892790979054926 -39.907210311146514
v -58.01458319894628 23.24923350024926 -39.63597850945782
v -58.196094108270884 17.468146625551903 -43.461174046342016
v -57.05427768945885 25.87905224332054 -43.221345892150026
v -56.05992124837777 20.90235231548143 -46.92706684726093
v -55.36587230721933 28.861137863459852 -46.642675663238876
v -53.395689809036 24.050635661767625 -51.01342153410633
v -52.967867877476635 32.15774466246073 -50.53798029949837
v -50.04046963587227 28.28607102969149 -54.07061061664659
v -49.53646267900564 35.541470173727376 -53.10467887600777
v -46.34995747121993 32.328324181540495 -55.3491146694185
v -46.013432320337024 38.34240521828721 -54.528063203682976
v -42.33966922671269 35.69530190546831 -55.99769531720288
v -42.01333167429243 39.88471216101176 -55.64118683445571
v -38.29026617215443 39.895288424216986 -55.79032505438457
v -31.605327342825866 1.8469280242186947 -49.538480777992504
v -53.21264254457184 12.576524885661854 -37.38112363916612
v -54.46483376808207 16.591647482170014 -39.83125417463105
v -54.396164779521214 19.619990295592387 -43.30553354830879
v -52.91223627919253 22.140520234731135 -45.18213213037796
v -50.397198131490114 26.73375730238101 -49.0080278071819
v -47.5628549226884 31.279034190532077 -51.994374538636684
v -44.55450556238041 35.157676300080425 -53.737698559247335
v -41.1301518007715 38.309857028164615 -55.2777371294859
v -34.08801398820475 17.16704911809963 -51.343263957275276
v -50.26846760248003 10.627385258179274 -42.846809117694576
v -50.63355992404354 5.68016608141323 -38.97559593066674
v -50.42418053879712 1.7573844587095842 -36.29592689384388
v -51.02333949322437 6.529059150824882 -33.901501567904795
v -49.29306629222303 3.1808720115659064 -34.657774440018684
v -53.97407969529648 5.63898160917627 -34.33653968297587
v -57.94936479643651 12.244581554467008 -33.295291373303264
v -50.05297863553876 12.726728009920418 -34.26574106040471
v -50.26202804686284 14.636302750048582 -37.67334865515736
v -49.39014907184385 17.642830885575307 -42.099862905622885
v -47.617937978771806 21.30571907122108 -46.430319880810316
v -44.46608796303517 25.066635135983617 -49.871919145318
v -41.1047042686199 28.8992239966991 -51.54999196789877
v -33.7195201947151 0.31138820920122967 -45.33408824075462
v -47.09443312804834 8.998259802745693 -31.52191439936326
v -46.96049443987489 11.58386419133187 -35.048473498687095
v -46.14265762268016 14.508887105838433 -39.38286181799819
v -44.220720630728124 18.26824219318026 -44.253734074026255
v -41.035992333740424 22.064041473452622 -47.86998640303922
v -31.634982830205256 -10.930285979943339 -43.93755582400654
v 21.629299380395317 27.2944745196289 -35.974887390632276
v 18.954163593888914 30.221139986863562 -34.88791210946055
v 32.88715220169423 13.688025420555736 -40.949513574595834
v 49.1585230774992 1.2757351478956416 0.24480297550305252
f 1 4 4
f 5 2 6
f 7 8 8
f 9 6 10
f 11 12 12
f 13 10 13
f 14 15 15
f 10 13 6
f 9 16 16
f 17 6 7
f 18 19 19
f 8 7 12
f 11 20 20
f 21 12 22
f 23 24 25
f 26 27 27
f 24 25 28
f 29 30 30
f 31 28 30
f 32 33 33
f 31 30 33
f 32 34 34
f 35 33 36
f 37 38 38
f 39 36 37
f 40 41 41
f 38 37 42
f 43 44 13
f 41 42 42
f 14 13 13
f 12 38 38
f 41 13 12
f 21 39 39
f 38 12 16
f 9 33 33
f 35 16 9
f 8 31 31
f 33 9 8
f 19 28 28
f 31 8 4
f 1 24 24
f 27 4 24
f 1 45 45
f 22 24 42
f 41 40 40
f 46 42 42
f 46 43 42
f 44 47 47
f 14 42 14
f 47 48 48
f 15 14 3
f 45 1 23
f 25 24 49
f 50 27 27
f 26 49 27
f 50 51 51
f 4 27 4
f 51 52 52
f 5 4 36
f 39 35 35
f 34 36 35
f 39 21 21
f 16 35 21
f 20 17 17
f 16 21 53
f 54 50 50
f 49 53 50
f 54 55 55
f 51 50 55
f 56 52 52
f 51 55 29
f 28 54 54
f 53 29 54
f 28 19 19
f 55 54 19
f 18 56 56
f 55 19 57
f 58 15 15
f 48 57 58
f 59 10 10
f 15 58 59
f 60 11 11
f 10 59 20
f 11 60 60
f 61 20 61
f 62 63 63
f 20 61 62
f 64 65 65
f 63 62 64
f 66 67 67
f 65 64 66
f 68 69 69
f 67 66 68
f 70 71 71
f 69 68 71
f 70 72 72
f 73 71 73
f 72 74 74
f 75 73 76
f 77 78 78
f 79 76 80
f 5 52 52
f 81 80 81
f 52 56 56
f 82 81 82
f 56 18 18
f 83 82 83
f 18 7 7
f 84 83 84
f 7 6 6
f 85 84 85
f 6 17 86
f 17 20 87
f 88 78 78
f 77 87 89
f 90 73 73
f 75 89 73
f 90 91 91
f 71 73 91
f 92 69 69
f 71 91 92
f 93 67 67
f 69 92 93
f 94 65 65
f 67 93 94
f 86 63 63
f 65 94 63
f 86 20 94
f 85 17 17
f 86 94 94
f 93 84 84
f 85 94 93
f 92 83 83
f 84 93 92
f 91 82 82
f 83 92 82
f 91 90 90
f 81 82 81
f 90 89 89
f 80 81 2
f 5 80 80
f 95 2 80
f 89 96 96
f 95 80 89
f 75 97 97
f 96 89 75
f 74 98 98
f 97 75 96
f 97 78 78
f 88 96 97
f 98 79 79
f 78 97 99
f 100 101 101
f 102 99 103
f 104 105 105
f 106 103 104
f 107 108 108
f 105 104 109
f 110 111 111
f 112 109 113
f 114 105 105
f 108 113 114
f 115 106 106
f 105 114 116
f 117 102 102
f 101 116 118
f 112 111 111
f 119 118 110
f 109 120 120
f 121 110 99
f 122 123 123
f 100 99 103
f 124 125 125
f 104 103 104
f 126 127 127
f 107 104 128
f 113 108 108
f 129 128 129
f 108 107 107
f 130 129 127
f 131 130 130
f 107 127 115
f 116 101 101
f 106 115 106
f 101 100 100
f 103 106 123
f 124 103 103
f 100 123 104
f 125 126 99
f 110 121 121
f 122 99 110
f 99 102 102
f 111 110 102
f 117 119 119
f 111 102 132
f 133 134 134
f 135 132 136
f 132 135 135
f 137 136 138
f 134 133 133
f 139 138 140
f 141 142 142
f 143 140 142
f 144 145 145
f 143 142 144
f 146 147 147
f 145 144 148
f 149 150 150
f 151 148 150
f 149 152 152
f 153 150 153
f 152 154 155
f 156 145 145
f 147 155 145
f 156 157 157
f 143 145 143
f 157 158 158
f 140 143 158
f 157 132 132
f 136 158 157
f 156 133 133
f 132 157 156
f 155 139 139
f 133 156 159
f 160 134 134
f 138 159 160
f 161 135 135
f 134 160 161
f 162 137 137
f 135 161 163
f 162 161 161
f 164 163 164
f 161 160 160
f 165 164 165
f 160 159 159
f 166 165 154
f 163 164 164
f 153 154 153
f 164 165 165
f 150 153 165
f 166 151 151
f 150 165 167
f 168 169 169
f 170 167 171
f 172 173 173
f 174 171 175
f 176 177 177
f 178 175 179
f 169 168 168
f 180 179 174
f 173 181 181
f 182 174 183
f 184 185 185
f 186 183 187
f 183 186 186
f 188 187 177
f 187 188 188
f 178 177 189
f 176 175 175
f 190 189 191
f 192 168 168
f 167 191 193
f 180 168 168
f 192 193 194
f 195 180 180
f 193 194 196
f 197 198 198
f 199 196 200
f 174 182 182
f 201 200 174
f 200 202 202
f 171 174 171
f 202 203 203
f 185 171 185
f 203 204 204
f 186 185 186
f 204 205 205
f 188 186 188
f 205 206 206
f 178 188 178
f 206 207 207
f 175 178 175
f 207 208 208
f 190 175 209
f 210 176 176
f 189 209 210
f 211 177 177
f 176 210 211
f 212 187 187
f 177 211 183
f 187 212 212
f 213 183 214
f 184 183 183
f 213 214 215
f 173 172 172
f 216 215 215
f 217 181 181
f 173 215 218
f 219 220 220
f 221 218 222
f 223 224 224
f 179 222 179
f 224 225 225
f 169 179 225
f 226 170 170
f 169 225 217
f 219 218 218
f 181 217 197
f 196 201 201
f 182 197 223
f 222 221 221
f 220 223 195
f 194 199 199
f 198 195 222
f 195 198 198
f 221 222 218
f 221 198 198
f 197 218 182
f 181 218 218
f 197 182 171
f 185 184 184
f 172 171 195
f 222 179 179
f 180 195 172
f 184 214 214
f 216 172 227
f 228 229 229
f 230 227 230
f 229 231 231
f 232 230 232
f 231 233 233
f 234 232 235
f 191 167 167
f 236 235 236
f 167 170 170
f 237 236 237
f 170 226 226
f 238 237 239
f 235 236 236
f 240 239 240
f 236 237 237
f 241 240 241
f 237 238 238
f 242 241 234
f 239 240 240
f 232 234 232
f 240 241 241
f 230 232 230
f 241 242 242
f 227 230 243
f 244 245 245
f 246 243 247
f 248 249 249
f 250 247 243
f 246 251 251
f 252 243 253
f 254 255 255
f 256 253 257
f 258 259 259
f 260 257 260
f 259 261 261
f 262 260 244
f 262 261 261
f 245 244 248
f 263 264 264
f 249 248 250
f 249 265 249
f 264 266 266
f 265 249 257
f 260 267 267
f 268 257 260
f 262 269 269
f 267 260 262
f 244 270 270
f 269 262 244
f 243 271 271
f 270 244 243
f 252 272 272
f 271 243 255
f 254 273 273
f 274 255 274
f 272 252 252
f 255 274 252
f 251 256 256
f 255 252 275
f 276 277 277
f 278 275 277
f 279 280 280
f 278 277 258
f 257 278 278
f 280 258 278
f 257 268 268
f 275 278 281
f 282 283 283
f 284 281 284
f 283 285 285
f 286 284 286
f 279 277 277
f 284 286 284
f 277 276 276
f 281 284 282
f 266 264 264
f 283 282 264
f 263 285 285
f 283 264 287
f 288 289 289
f 290 287 291
f 288 287 287
f 292 291 293
f 291 292 292
f 294 293 295
f 296 297 298
f 299 300 301
f 302 303 302
f 304 303 301
f 305 306 306
f 302 301 305
f 301 299 299
f 307 305 299
f 298 296 296
f 307 299 296
f 298 297 308
f 293 294 294
f 309 308 310
f 297 311 311
f 312 310 298
f 313 311 311
f 297 298 297
f 310 314 314
f 295 297 315
f 308 309 309
f 316 315 290
f 289 317 317
f 318 290 318
f 317 319 319
f 320 318 298
f 300 313 303
f 300 299 299
f 301 303 321
f 322 323 324
f 314 310 310
f 325 324 310
f 312 326 326
f 325 310 327
f 315 316 327
f 316 323 322
f 327 323 320
f 304 302 302
f 318 320 318
f 302 306 306
f 290 318 306
f 305 287 287
f 290 306 305
f 307 292 292
f 287 305 307
f 296 294 294
f 292 307 296
f 295 309 309
f 294 296 295
f 314 316 316
f 309 295 316
f 314 323 323
f 314 324 324
f 321 323 328
f 329 330 330
f 331 328 332
f 333 334 334
f 335 332 333
f 336 337 337
f 334 333 338
f 339 340 340
f 341 338 342
f 343 334 334
f 337 342 343
f 344 335 335
f 334 343 345
f 346 331 331
f 330 345 347
f 341 340 340
f 348 347 339
f 338 349 349
f 350 339 328
f 351 352 352
f 329 328 332
f 353 354 354
f 333 332 333
f 355 356 356
f 336 333 357
f 342 337 337
f 358 357 358
f 337 336 336
f 359 358 356
f 360 359 359
f 336 356 344
f 345 330 330
f 335 344 335
f 330 329 329
f 332 335 352
f 353 332 332
f 329 352 333
f 354 355 328
f 339 350 350
f 351 328 339
f 328 331 331
f 340 339 331
f 346 348 348
f 340 331 361
f 362 363 363
f 364 361 365
f 366 367 367
f 368 365 369
f 370 368 368
f 367 369 365
f 371 372 372
f 366 365 373
f 361 364 364
f 374 373 375
f 363 362 362
f 376 375 377
f 378 379 379
f 380 377 379
f 381 382 382
f 380 379 381
f 383 384 384
f 382 381 385
f 369 367 367
f 386 385 386
f 367 366 366
f 387 386 372
f 388 387 387
f 366 372 389
f 390 382 382
f 384 389 382
f 390 391 391
f 380 382 380
f 391 392 392
f 377 380 392
f 391 361 361
f 373 392 391
f 390 362 362
f 361 391 390
f 389 376 376
f 362 390 393
f 394 363 363
f 375 393 394
f 395 364 364
f 363 394 395
f 396 374 374
f 364 395 388
f 396 395 395
f 387 388 387
f 395 394 394
f 386 387 386
f 394 393 393
f 385 386 397
f 398 399 399
f 400 397 397
f 400 401 401
f 402 397 398
f 403 404 404
f 399 398 405
f 406 407 408
f 409 410 411
f 412 413 413
f 410 411 414
f 415 416 416
f 417 414 416
f 418 419 419
f 417 416 419
f 418 420 420
f 421 419 422
f 423 424 424
f 425 422 423
f 426 427 427
f 424 423 428
f 429 430 431
f 427 428 428
f 432 431 431
f 433 424 424
f 427 431 433
f 434 425 425
f 424 433 435
f 436 419 419
f 421 435 436
f 437 417 417
f 419 436 437
f 438 414 414
f 417 437 439
f 440 410 410
f 413 439 410
f 440 441 441
f 408 410 428
f 427 426 426
f 442 428 428
f 442 429 428
f 430 443 443
f 432 428 444
f 441 440 409
f 411 410 445
f 446 413 413
f 412 445 413
f 446 447 447
f 439 413 448
f 449 450 450
f 451 448 422
f 425 421 421
f 420 422 421
f 425 434 434
f 435 421 407
f 402 401 452
f 453 446 446
f 445 452 446
f 453 454 454
f 447 446 455
f 448 451 451
f 456 455 415
f 414 453 453
f 452 415 453
f 414 438 438
f 454 453 403
f 455 456 456
f 404 403 444
f 440 457 440
f 439 450 450
f 457 440 439
f 447 451 451
f 450 439 447
f 454 456 456
f 451 447 454
f 438 404 404
f 456 454 438
f 437 399 399
f 404 438 437
f 436 400 400
f 399 437 400
f 436 435 435
f 401 400 435
f 434 407 407
f 401 435 434
f 433 405 405
f 407 434 433
f 431 458 458
f 405 433 431
f 432 459 459
f 458 431 432
f 443 460 460
f 459 432 461
f 462 463 462
f 464 465 465
f 463 462 464
f 466 467 467
f 465 464 466
f 468 469 469
f 467 466 468
f 470 471 471
f 469 468 470
f 472 473 473
f 471 470 472
f 474 475 475
f 473 472 474
f 476 477 477
f 475 474 476
f 478 479 479
f 477 476 479
f 478 480 480
f 481 479 463
f 465 482 465
f 467 483 483
f 482 465 467
f 469 484 484
f 483 467 469
f 471 485 485
f 484 469 471
f 473 486 486
f 485 471 473
f 475 487 487
f 486 473 475
f 477 488 488
f 487 475 477
f 479 489 489
f 488 477 479
f 481 490 490
f 489 479 486
f 491 485 491
f 492 484 484
f 485 491 492
f 493 483 483
f 484 492 483
f 493 482 405
f 458 494 494
f 495 405 458
f 459 496 496
f 494 458 459
f 460 497 497
f 496 459 495
f 494 482 482
f 493 495 494
f 496 463 463
f 482 494 496
f 497 461 461
f 463 496 495
f 493 498 493
f 492 499 499
f 498 493 492
f 491 500 500
f 499 492 491
f 486 501 501
f 500 491 486
f 487 502 502
f 501 486 487
f 488 503 503
f 502 487 488
f 489 504 504
f 503 488 405
f 495 406 495
f 498 505 505
f 406 495 498
f 499 506 506
f 505 498 499
f 500 507 507
f 506 499 500
f 501 508 508
f 507 500 501
f 502 509 509
f 508 501 502
f 503 510 510
f 509 502 407
f 406 505 505
f 402 407 505
f 506 397 397
f 402 505 506
f 507 398 398
f 397 506 507
f 508 403 403
f 398 507 508
f 509 455 455
f 403 508 509
f 510 448 448
f 455 509 457
f 450 449 449
f 448 510 510
f 503 504 504
f 489 490 1
f 2 3 3
f 4 1 1
f 1 313 1
f 1 1 217
f 1 1 1
f 2 1 91
f 1 4 1
f 109 1 4
f 1 117 1
f 4 1 125
f 1 4 1
f 133 1 4
f 1 141 1
f 1 1 1
