v 11.08282594322947 2.2772878034363986 14.1978768248195
v 11.168096831284732 2.0114281240242904 11.475458649118128
v 3.3313636739900527 1.9050857609556202 16.450233897127617
v 2.9078477099944795 1.6525300093122477 14.25547425419941
v 10.318499148670613 -14.86980199668024 -6.649238073425832
v 3.782096400671261 -5.964679862363625 -4.815545001012994
v 4.743574234300844 -5.755859971000394 -2.1247116263086205
v 1.5755022291387597 -4.902588573499373 -4.052172971508358
v 4.825691897387175 0.4708340559144992 0.9813843875066495
v 7.185018949799312 0.9029425232884998 3.4860796365001097
v 11.530524683815951 0.9505703784683682 2.3279359284501258
v 10.794157621242173 1.2483898135586586 4.1637076324814135
v 16.934794766044902 2.147479062672223 8.430008220376672
v 22.19983817185088 1.861420159062272 7.8109159585974375
v 10.230887347055676 3.6836444910951567 28.887532001120793
v 0.6667409820277665 0.7759644352862797 7.221389328873109
v -3.330218853516124 -0.4272440159693593 -1.7064372615615988
v -3.246090132718192 -0.3095945169900258 -0.5919261061606517
v -2.5620869176288505 0.1289158967853193 1.920480538113896
v 4.123126567150198 -1.9214759185962147 1.9097029281172924
v 0.787421866406188 0.9241273530391513 8.618305969521424
v 0.7815036773082343 0.9315832884747517 8.697296193608652
v 1.8684100792950664 1.0117828991792375 8.66024690362813
v 22.195967077398855 -17.542191530621576 1.2231840404075123
v 12.697211546064533 -0.02227267453374717 5.6063010899804615
v 9.081422515652523 -0.011376376970676205 5.544187270890896
v 7.778414234929329 -0.05953526164712928 5.449365438510267
v 4.51573905338942 -0.03197822332498323 2.8732998987545537
v 10.317777452433148 -17.136999458405178 -0.9607421841192815
v 10.321544210226165 -10.418756174602674 1.2874150822447916
v 14.217012698948981 -10.43141008565708 0.9951099900795155
v 9.467909537470055 -15.328569191371972 -0.3604539427059824
v 0.0 0.0 0.0
v -0.08271587410258154 -0.2536956528319859 0.023635182564036045
v 0.008950675015435797 -0.27276964839100143 0.01884815034242284
v 0.0 0.0 0.0
v 0.27018887596081387 -0.018616962576084386 0.9737729396533055
v 2.7794852862485575 -0.051137151635688036 1.112610750441332
v 5.147622033448159 -0.08662713668945178 1.4644154806827674
v 5.1852326532406305 -0.07509533168165652 1.7798261133614908
v 12.784298383684595 -4.388839602342805 6.810370534024873
v 25.098687721348792 -1.493563708325031 18.694569462071836
v 26.865917411814113 -1.6224054792191749 18.777242745998702
v 3.1380502343313172 2.513091999987723 -7.665251562468034
v -3.6201578882392567 -1.1505771000476814 0.3822817293165377
v -3.4205349914217336 -1.140693382798665 0.3630708162364501
v -8.686129508726196 -5.136405808118018 1.0397573185865143
v -0.7796115698283169 -23.75866447613564 1.7378350914955334
v 0.1009776123764103 -0.0015857821227591368 0.04104062399082857
v 0.16762086573736143 -0.0035260291366103714 0.09325907629331222
v 0.16762086573736143 -0.0035260291366103714 0.09325907629331222
v 0.10148208861265094 -0.001620687829431864 0.041843499385464895
v 0.2242511282529245 -0.00020033010259082662 0.0688376123739445
v 0.24724235981768392 -0.00020954053759705257 0.0762129585973179
v 0.739963245577304 1.1699200916982599e-07 0.5095971950902165
v 0.7349451705425085 1.0887834511135008e-07 0.49962768687847475
v 0.6753166616055802 5.2042022680960694e-08 0.40181799452279127
v 0.6679811961737581 5.800840375389154e-08 0.39237521479835347
v 0.29516061817710276 -0.6712074957161548 -0.023687808344676698
v 0.3009675535744377 -0.7027327297745186 -0.020727495096412155
v 0.2814083044610253 -0.5714399667262542 -0.02518272743524605
v 0.2891674939576822 -0.5802129763901898 -0.028446657167109392
v 0.2488668650165955 -0.4612239254616124 -0.01107199594134035
v 0.24900187335077498 -0.46133476057670497 -0.011103538281498588
v 0.20026071239456755 -0.4213311170361617 0.00028620679435154445
v 0.20091493517682588 -0.4218680580127474 0.00013332819923604034
v 0.7539701907671487 -1.1967251347617638e-07 0.5503996981080489
v 0.7650244685497528 1.6410834918449502e-07 0.5620513504955831
v 0.16762086573736143 -0.0035260291366103714 0.09325907629331222
v 0.09891730038302601 -0.0014432275538272647 0.03776168670020775
v 0.10017945683772235 -0.0015305574928373951 0.03977038677145872
v 0.16762086573736143 -0.0035260291366103714 0.09325907629331222
v 0.08895449582904547 -0.0007538938652908346 0.021906131181130065
v 0.09256349918696097 -0.0007243618576210547 0.022020434542546423
v 0.15673276787856094 -0.0004750647525717531 0.05152823957856609
v 0.15715414054407043 -0.0004927762703656455 0.04239587743845099
v 0.21036938795010535 -0.00021005400650106552 0.03370575119415325
v 0.23179308685998112 -0.00019345780455568476 0.07389213664552231
v 0.43036959245649237 -1.8023058244386073e-05 0.22687921098203984
v 0.4030085463193839 -1.6136013090867175e-05 0.18175442967084027
v 0.6132018368977058 -8.350478134788072e-06 0.4283354487843186
v 0.5908112767176193 -7.10290301149252e-06 0.3927685543174734
v 0.7555499030629389 1.7329647283429266e-07 0.545570165954279
v 0.7658306830434201 1.6801777973142161e-07 0.5551230939088662
v 0.7098345964820165 1.0170850129756852e-07 0.4645538191141778
v 0.7262593019168024 1.0071996367986938e-07 0.48534876260805215
v 0.6795701486032367 5.8003561980354236e-08 0.4091704411390882
v 0.673264362650525 5.22342961942655e-08 0.39888183691837104
v 0.5936523989741493 -0.06251870981816976 0.30508424054883565
v 0.5917672048989979 -0.06251871124526749 0.3039392655903015
v 0.5378893366672505 -0.19953108214040488 0.2627359480825995
v 0.5363391275617869 -0.1963305486433306 0.2590495351784811
v 0.4219653071999954 -0.5774782515237302 0.15176828210752194
v 0.41889122980939225 -0.5865988622620784 0.1484969990854894
v 0.32541076316445333 -0.8366258400766902 0.03840968636702553
v 0.32501425954543767 -0.8350058225092652 0.0372388867739259
v 0.29784586015317865 -0.7279121320537357 -0.02154042915444114
v 0.2979115119862759 -0.7225171091792395 -0.021887307200818232
v 0.290174041063935 -0.5921289653147275 -0.029385035169728027
v 0.2889344915029936 -0.5895829931733094 -0.02888817438341039
v 0.2511996493339482 -0.4631385262564308 -0.01161711677402165
v 0.2508282877089618 -0.46283374052710524 -0.011530336831049044
v 0.19867125816824843 -0.420026584334208 0.0006576254839489645
v 0.1988400084610709 -0.420165096640413 0.0006181944334560645
v 0.1010092561118294 -0.24650191805703417 0.003630595236342149
v 0.1026411297060569 -0.2494181258534351 0.0035844723842784346
v 0.046629895155836903 -0.13498651425344 0.003732826934986398
v 0.04486006043708796 -0.13010996587620638 0.0036102790026909144
v 0.014407181787008252 -0.04494281847504251 0.0014041314307456452
v 0.015263349876967614 -0.0474642895176269 0.0014760015781946393
v 0.018014326715235094 -0.05556609641411118 0.0017069295011190762
v 0.012054480489049378 -0.039761504542470814 0.0013420705439996209
v 0.007850841960940795 -0.023979715600589365 0.0007255621630360362
v 0.009411269742329581 -0.02860830518306052 0.0008591102978196743
v 0.003891039229262645 -0.013886423676795462 0.0005147255297764675
v 0.006423038145090958 -0.021378237939454054 0.0007299772203436606
v 0.00011268085282345263 -0.0014037569028112341 9.253112395231965e-05
v 0.00011693551360901253 -0.0014567606678449231 9.602496105648628e-05
v 0.00012883130410912136 -0.0016049561918447957 0.00010579353164940691
v 0.00013278444854086243 -0.0016542037227679138 0.00010903976992546938
v 6.36059466582842e-05 -0.0007923909381596901 5.223185294456126e-05
v 6.792945868189323e-05 -0.0008462524389866109 5.578222922359706e-05
v 0.0 0.0 0.0
v 0.0 0.0 0.0
v 0.29525507036355547 -0.7093534051902857 -0.021483192950702203
v 0.3029193441305845 -0.7769595395825166 -0.002230840716032134
v 0.3528087662696232 -0.7718940339623948 0.07368420603760187
v 0.40010941661736216 -0.6391329056031164 0.12711330713320917
v 0.48762725038142096 -0.3715685852441072 0.21679192086029037
v 0.5408751481829638 -0.1942245978589629 0.2670859053277962
v 0.5975902682254074 -0.056146056486192975 0.3156713988690296
v 0.6512723920198918 4.8280452143204636e-08 0.3567381929237108
v 0.2453881019972234 -0.014504257103070104 0.7564112012953846
v 0.21168169779701348 -0.013005277791270965 0.666334670807941
v 0.3128008913917093 -0.017502214720893156 0.9365642069801436
v 0.3128008913917093 -0.017502214720893156 0.9365642069801436
v 0.11670795080919437 -0.008781638984518047 0.4125281412590273
v 0.13407191585242226 -0.009553843082194476 0.45893136158680436
v 0.09173228860165161 -0.007670930188984695 0.3457835265720297
v 0.09670344092936008 -0.007892005512971676 0.3590683653845545
v 0.3128008913917093 -0.017502214720893156 0.9365642069801436
v 0.08642477981847976 -0.007434896539952593 0.33159981341411887
v -17.244337517123967 -2.443485586066299 43.877801453794646
v 0.06554000126727237 -0.00650611607211832 0.2757876197016882
v 0.06843161805609034 -0.00663471102883911 0.2835151364653407
v 0.05587241517427371 -0.006076182610661325 0.2499520961680739
v 0.05998895449860732 -0.006259251888132391 0.2609530789954098
v 0.05737024812019519 -0.0061427937064332805 0.25395488424273116
v 0.05820436873409611 -0.006179888422669297 0.2561839766493575
v 0.3128008913917093 -0.017502214720893156 0.9365642069801436
v -4.415908356088525e+21 -4.235996325486298e+20 5.572249348855402e+21
v -28.165795416701364 -2.8395612604282765 39.40084694836878
v -29.013297171526332 -2.940567663057853 41.02256568350426
v -29.08320880309383 -2.9474954887881246 41.11699101031575
v -28.23570704826886 -2.846489086158548 39.49527227518027
v 0.3128008913917093 -0.017502214720893156 0.9365642069801436
v 0.3128008913917093 -0.017502214720893156 0.9365642069801436
v 0.3128008913917093 -0.017502214720893156 0.9365642069801436
v 0.3128008913917093 -0.017502214720893156 0.9365642069801436
v 0.3128008913917093 -0.017502214720893156 0.9365642069801436
v 0.3128008913917093 -0.017502214720893156 0.9365642069801436
v 0.3128008913917093 -0.017502214720893156 0.9365642069801436
v 0.3128008913917093 -0.017502214720893156 0.9365642069801436
v 0.3128008913917093 -0.017502214720893156 0.9365642069801436
v 0.3128008913917093 -0.017502214720893156 0.9365642069801436
v 0.3128008913917093 -0.017502214720893156 0.9365642069801436
v 0.3128008913917093 -0.017502214720893156 0.9365642069801436
v 0.3128008913917093 -0.017502214720893156 0.9365642069801436
v -0.5347008634332588 -0.11850861735047011 2.55828294211563
v 0.3128008913917093 -0.017502214720893156 0.9365642069801436
v 0.3128008913917093 -0.017502214720893156 0.9365642069801436
v 0.3128008913917093 -0.017502214720893156 0.9365642069801436
v 0.39050058135516913 0.028267448410065336 -0.4520034283169176
v 0.3831558756065414 -0.023251512555944213 -0.4355590036230878
v 0.9442609333431581 -0.5129831567134375 -1.0426569462625783
v 0.8642372350127451 -0.4798971647771797 -0.9232642612761901
v 0.2313964262563827 -1.4252682700306925 -0.07000808480385336
v 0.05119682697984043 -0.028019047962773956 0.02764536425778577
v -3.9606614674722445 17.35773819893509 7.985437883359017
v -0.00960982473071341 0.1830343608144372 0.09517052089714048
v -6.655096930860796 15.27492316218843 9.622633426109093
v 0.2589391092929418 -0.6017980069050667 -0.20287756298464316
v 0.24021247317643526 -1.5646051055454482 -0.06597809561457464
v 0.16705554213105303 -1.0789204713240361 -0.05787090455391857
v 0.48741678690872214 -0.5071046603064545 -0.8776807969213429
v 0.1426969465679868 -0.4129359082503611 0.3285261700950606
v -0.5454769195790652 5.257203467796725 0.11204440092764338
v -0.013127614921978989 0.6635297894421074 0.0026962391773216335
v 0.4680328997013938 -8.658594894234607 -0.09613500012085982
v 0.08028895909595339 -0.43542732501890286 -0.02317939335630096
v 0.1558011337331761 -0.8276620454232537 -0.06325985688605651
v 0.22233030879262217 -0.5048150862864214 -0.11538613618209811
v 0.38571176583636735 -0.8632268376219334 -0.5768156031102277
v 0.14932085899621023 -0.5740528469856171 0.2454665990572588
v 3.5655487710259397 -0.2776362932881099 -10.679296997470416
v -0.3274576828388223 -0.07792233614759374 0.649242610340635
v 13.492490290605913 2.945064726457953 -19.103596816951423
v 0.2074080442943779 0.011006591852905704 0.24845815962507792
v 0.7093183359327367 -0.9473328987143278 0.002914670431057416
v -0.3595665312725561 -0.3736440150190449 0.04595812871070744
v 0.7640843575625095 -0.2661270137246573 -0.06900055554824965
v -0.01958124353598193 -0.5270560964061175 0.005740564973166096
v 0.23778567253288374 -0.06841332550309043 -0.4933835481247141
v 0.08502436390488327 0.0017307365991032003 -0.055004159519321506
v 3.2727416086024537 1.1717875657072512 3.0056315751838394
v -1.0486661336892324 -0.4724878148242206 -1.412788371519202
v 1.0989445600712455 0.3278747995460815 0.7051902506021065
v -1.3252238071620321 -0.3530421104902858 -0.6541132547557604
v 0.5578861294714498 0.11572374480483003 0.15751353413107438
v 0.1819520062488917 0.025000262650531763 -0.018991685294607707
v -0.1738363305730945 -0.8085323624510404 -3.618968721100867
v 0.16048663362843157 0.00021921362629568882 -0.11794916316910714
v 20.481525220743205 7.598549788112647 20.03942055403639
v -0.04667562299216953 -0.36638167429420426 -1.6637061543824887
v 0.8691833746635489 0.25428863851507527 0.5344095638226529
v 0.7718560253718708 0.22128416785641583 0.45356888099579273
v 0.6572294237176065 0.1207130595505557 0.17433989538250855
v -0.12952515967650982 -0.257946576305013 0.10595507570015233
v 7.245352212788157 -1.0770268493620718 -0.2500674031421955
v 0.14483592149688077 0.0005327185784812997 -0.10489442001437678
v 14.309023875785176 4.040226754129457 8.12089118838569
v 0.813090983463997 0.18734580225218864 0.265686428646069
v 0.07267324780346263 -0.039317283931089575 -0.23612048044694783
v 1.4624601101430608 0.44090812964978404 0.9596731077198999
v 0.8647103267065749 0.3085236833542772 0.7891238778060355
v 0.0 0.0 0.0
v 0.0 0.0 0.0
v 0.0 0.0 0.0
v 0.0 0.0 0.0
v 0.0 0.0 0.0
v 0.0 0.0 0.0
v 0.0 0.0 0.0
v 0.0 0.0 0.0
v 0.0 0.0 0.0
v 0.0 0.0 0.0
v 0.0 0.0 0.0
v 0.0 0.0 0.0
v 0.0 0.0 0.0
v 0.0 0.0 0.0
v 0.0 0.0 0.0
v 0.0 0.0 0.0
v 0.0 0.0 0.0
v 0.0 0.0 0.0
v 0.0 0.0 0.0
v 0.0 0.0 0.0
v 0.0 0.0 0.0
v 0.0 0.0 0.0
v 0.0 0.0 0.0
v 0.0 0.0 0.0
v 0.0 0.0 0.0
v 0.0 0.0 0.0
v 0.0 0.0 0.0
v 0.0 0.0 0.0
v 0.046032292823118874 0.19306396564148415 -0.024673960414430478
v 0.046032292823118874 0.19306396564148415 -0.024673960414430478
v 0.046032292823118874 0.19306396564148415 -0.024673960414430478
v 0.046032292823118874 0.19306396564148415 -0.024673960414430478
v 0.1509394963762956 0.4898785574276477 -0.08090577676777862
v 0.13815273103088627 0.45710192921940557 -0.07405187930246275
v 0.13792727430295573 0.4576065804527978 -0.07393103059072029
v 0.13582155244508215 0.44450385769690987 -0.07280233597947379
v 7.17217970899694e+21 2.5200799868386045e+22 -3.8443922320663495e+21
v 5.519859944300352e+21 1.9395064178793154e+22 -2.958724899955169e+21
v 9.055261414594655e+21 3.1817360959159912e+22 -4.853751307699237e+21
v 9.810549956781439e+21 3.447120904535018e+22 -5.258596908668942e+21
v 2.3043279599774617e+22 5.43629138507847e+22 -1.2351544822061397e+22
v 2.090559237720993e+22 3.825432299854343e+22 -1.120571773851976e+22
v 4.970358868787994e+21 1.7464288990034464e+22 -2.6641843625001673e+21
v 8.543595577640464e+21 3.00195269840299e+22 -4.579491006255185e+21
v 2.2864281769535886e+22 5.373396938814065e+22 -1.2255599391796137e+22
v 4.255267394813419e+22 3.4429608225926717e+22 -2.2808906453031294e+22
v -5.121908408336831 -1.441816661587849 2.745425271530213
v -7.29398158461598 -5.750458066941135 3.9096896003914416
v -5.949536044157449 -1.6780914405710143 3.189046991663811
v -10.781301020513359 -9.182997266049135 5.778947689035952
v -7.946772598198129 -11.461583543757236 4.259593356573489
v -3.0951372517174858 -5.050881426045433 1.6590412791726483
v -3.8375192448694566 -7.01887906434553 2.056969098588203
v -0.2871453219146396 -0.6768508343316149 0.15391421629982985
v -0.12063317720521301 -0.28953995353307116 0.06466119688580046
v -0.13545158225885798 -0.33336962841581513 0.07260408073889452
v 14.265902050257004 1.6785504319757307 -26.690716377141577
v 10.541015743056173 1.052570976836964 -14.46181448926982
v 7.32164171946849 0.8432468178604386 -13.187541954988024
v 13.709924582548844 1.6583873797716997 -26.918634423762903
v -8.592436800827414e-43 2.3766442782214632e-42 -1.1183439177688898e-43
v -6.335267887618302e-41 2.200772820589876e-40 -1.1443101195798611e-41
v -3.469413516721617e-42 1.5066940311183136e-41 -8.416139560749828e-43
v -7.204085847016428e-42 2.1150476907058845e-41 -1.0249270117083633e-42
v -9.95656691115896e-41 6.892651851895808e-41 -5.089498821144868e-41
v -5.120171206064389e-41 6.089035192427666e-41 -3.262930043470592e-41
v -4.521603778306479e-41 1.106976188707847e-40 -4.2743716660218894e-42
v -5.296155887404796e-42 2.2055556401943114e-42 8.360701202699446e-43
v -1.9057865202519406e-41 2.0023311265161811e-41 2.991372709816876e-41
v -2.0740113264558006e-41 1.3121932946606848e-40 -6.08239305047361e-43
v 4.110253055381175e-42 6.648607562278342e-41 -2.604535373870216e-41
v -6.667921062984579e-42 4.769472649851545e-41 -2.953475706679144e-42
v -2.669399048684589e-41 4.770301319393994e-41 -2.8143889776578054e-41
v -0.1856520499015308 1.3906686931514645 -0.08670461735004067
v 0.08759776189698558 -0.2618439283767468 0.012795213020126628
v 3.119304447698223e-44 -1.3388736013414989e-43 -6.407338056238363e-45
v 8.102062263967128e-06 -0.00010093397010288784 6.653241512035468e-06
v 0.0 0.0 0.0
v 6.223003640834685e-06 -7.752501066643476e-05 5.110198465998503e-06
v 1.7123116716649055e-44 -1.3131425996190897e-43 6.113465005910015e-45
v 0.0317965652735853 -0.13788473511281316 0.007698903864459631
v 1.3139355101968771e-43 1.162038818862251e-44 1.5602896270244805e-44
v 0.0005257837740844414 -0.006550115514421806 0.00043176247208700504
v 1.567928044039338e-45 -1.1254710432765803e-47 -1.1269753941733181e-45
v 0.034472100505673925 -0.22676006643025168 0.013856262772412248
v 0.0 0.0 0.0
v 0.00015608085689741504 -0.002814747228333957 0.000190223842145716
v 5.259928904959634e-44 -2.9430991932804946e-45 1.5748871819794385e-43
v 0.00040093734560377945 -0.004994802154789669 0.00032924123569870396
v 0.0 0.0 0.0
v 0.014522540441435665 -0.06416595600093544 0.0036011505891500963
v 0.0 0.0 0.0
v 0.0005909923211394874 -0.007362471347353166 0.0004853103464517373
v 0.0 0.0 0.0
v 0.02041920717959231 -0.145362116873259 0.008994984190013452
v 0.0 0.0 0.0
v 0.03272686690239644 -0.11223994767825704 0.005808056326347734
v 0.0 0.0 0.0
v 0.0013092618744022075 -0.0041098369178813425 0.00020523289276891675
v 0.0 0.0 0.0
v 0.0037196384411725346 -0.017111211760360696 0.0009705900438156088
v 7.859022173155443e-46 -2.967849306118112e-44 2.0633634742381458e-45
v 4.68563923224452e-05 -0.0005837281358397192 3.847747454254533e-05
v 0.0 0.0 0.0
v 0.010178259404115904 -0.0936562171315445 0.005995114432307732
v 0.0 0.0 0.0
v 0.04753955356843739 -0.20599150531355737 0.011499191808871656
v 0.0 0.0 0.0
v 0.00036879242481907174 -0.0012684950285156255 6.571260647866197e-05
v 0.0 0.0 0.0
v 0.03637446996173888 -0.1660170463296929 0.00939774005194692
v 0.0 0.0 0.0
v 0.007528264556722557 -0.023559277999333335 0.0011749347044928081
v 0.0 0.0 0.0
v 0.0079685710970449 -0.06113886033457221 0.0038248177424632275
v 0.0 0.0 0.0
v 2.189281285287748e-05 -0.0002727365510121954 1.7977913096988147e-05
v 0.0 0.0 0.0
v 0.007664083624131221 -0.025622863659846354 0.0013129597470221846
v 3.379713100191087e-44 -8.23104223139732e-46 2.9123706604478774e-44
v 0.07263263787724776 -0.3252143560104837 0.01831703461484293
v 0.0 0.0 0.0
v 0.0015040731907332977 -0.004471517501325293 0.00021795686365260467
v 1.6088169715010454e-44 -3.421860125527815e-46 9.296884012575775e-45
v 0.01924208301803804 -0.12306493717267046 0.007484140082853506
v 1.4680588605019138e-43 7.505324199808355e-50 5.860194015595688e-44
v 0.07405289229593624 -0.3045260053195428 0.01674672365192717
v 0.08494826148176332 -0.2433845152591368 0.00644433969537815
v 6.762703438565805e-05 -0.0005984444462017713 3.8133898211666214e-05
v 0.0 0.0 0.0
v 0.10155694877457343 -0.3741877869879885 0.019869206369904358
v 1.7115646014403652e-43 3.9906447701076483e-50 1.5433639956866277e-43
v 0.0008379365345164529 -0.0025944401430381164 0.00012879197047375245
v 0.0 0.0 0.0
v 0.10137869140773559 -0.8222582976832555 0.05182840872912591
v 0.0 0.0 0.0
v 0.004735872874101085 -0.019498750490819224 0.0010726736768905953
v 1.1238813916295375e-43 3.704850330620547e-50 7.288120924037357e-44
v 4.797999558688826e-05 -0.00015874791905548885 8.101207667562263e-06
v 0.0 0.0 0.0
v 0.07827437454238986 -0.3042647745079316 0.016445012689237735
v 0.0 0.0 0.0
v 0.015672302165152478 -0.06491259698658568 0.003577284757836636
v 0.0 0.0 0.0
v 0.004093710225230776 -0.03078364040974449 0.0019203441462238484
v 0.0 0.0 0.0
v 0.05822842920013945 -0.1988413125817095 0.010272608375661432
v 0.0 0.0 0.0
v 0.00048518829618370566 -0.0016941951313284016 8.825954789868715e-05
v 0.0 0.0 0.0
v 0.04023626534243498 -0.14586613136107135 0.0077020225207322735
v 0.3563442070637682 0.07825414483889825 -0.5181644484785042
v 0.005534056103112949 -0.02688092019841436 0.0015454946440574028
v 0.0 0.0 0.0
v 0.027950428286405142 -0.20959851953525957 0.013069983400313873
v 0.0 0.0 0.0
v 0.0480700590186239 -0.167649069196762 0.008729816624759617
v 0.0 0.0 0.0
v 0.0005612859459910032 -0.0018921816341342947 9.727292960000477e-05
v 0.0 0.0 0.0
v 0.027963658154391155 -0.10168809178441496 0.005375125762820703
v 0.4749654806693189 0.126471564421699 0.2341582211785035
v 0.007487933484100657 -0.023636641070455752 0.0011831551927007616
v 1.8947074709227857e-45 -5.240318090489337e-45 1.3272112281116586e-46
v 0.007708518490680684 -0.02806305867649245 -6.784693346117432e-05
v 0.22359109984205117 0.0764012522841975 0.5903644661484333
v 0.05395993763913931 -0.19003415918637953 0.009930899524207159
v 2.641110182405948e-45 1.48179721595653e-51 5.472625498372765e-46
v 0.2791200413890773 0.018064414749838175 0.015235403692082948
v 0.2767502169408778 -0.003419522976125707 -0.06706037602599611
v 0.5910359534677664 -0.025278888135292884 -0.8336398306661701
v 0.0 0.0 0.0
v 0.07329424691078092 -0.006050688942102154 0.04087466223547096
v 0.0 0.0 0.0
v 0.6987326911046453 -1.6212841786610888 -0.03592092302685934
v 0.1188637283354044 0.011993300429870159 0.02904812615995578
v 0.3945954548208449 0.025381798991587066 0.02154803389286648
v 0.0 0.0 0.0
v 0.22628204169741195 0.011380263206987928 -0.25843632243404835
v 0.0 0.0 0.0
v 0.4969188139270281 -0.10782538052971187 0.18183005875276484
v 0.1022971710903099 -0.3495918919972382 0.018065890835266527
v 0.05445811354946612 -0.11159183638119899 -0.00039898173044491014
v 0.0 0.0 0.0
v 0.005190994562249999 -0.03379707631365306 0.00206161893155106
v 0.0 0.0 0.0
v 0.00044923790979062853 -0.005596521512498103 0.0003689046335143273
v 0.0 0.0 0.0
v 0.0004059471794775371 -0.005057213724333286 0.00033335520490942257
v 0.0 0.0 0.0
v 0.012068660331708763 -0.048155268894453825 0.0026241479462246467
v 0.0 0.0 0.0
v 0.0004772426854668878 -0.005945399748526568 0.0003919015607155875
v 8.27498568158963e-44 2.5885850854425464e-43 -4.435513782785507e-44
v 0.008665931332866583 -0.05754347337279692 0.0035217043126347285
v 0.0 0.0 0.0
v 0.00016834993307684947 -0.0004630362949403302 2.172504736286856e-05
v 0.0 0.0 0.0
v 0.000754502184041976 -0.009399446511951091 0.000619581174303583
v 0.0 0.0 0.0
v 0.23128218695178993 -0.6101345921657028 0.02799296901769359
v 0.0 0.0 0.0
v 0.0003568703137325096 -0.004445823347603869 0.00029305432473628875
v 0.0 0.0 0.0
v 0.23847082385436352 -1.5725434523410244 0.09613027937463266
v 0.24345493668841994 -0.6422469471809296 0.029466283546272693
v 0.0008642439190227719 -0.010766588436650033 0.0007096987570854658
v 0.0 0.0 0.0
v 0.00018310840490521534 -0.002281130120227063 0.00015036473443755802
v 1.3385923448327406e-43 6.229791138915245e-45 -7.035024939562812e-44
v 0.005739150501841954 -0.01514018133851717 0.0006946313691656272
v 2.636969892247978e-45 -1.8928376636924305e-47 -1.8953677083823987e-45
f 1 1 1
f 1 1 1
f 17 1 1
f 16257 1 1
f 1 1 1
f 1 17 1
f 1 16257 1
f 1 1 1
f 1 1 17
f 1 1 16257
f 1 1 1
f 1 1 1
f 17 1 1
f 16257 1 1
f 1 1 1
f 1 17 1
f 1 16257 1
f 1 1 1
f 1 1 17
f 1 1 16257
f 1 1 1
f 1 1 1
f 17 1 1
f 16257 1 1
f 1 1 1
f 1 3341 15
f 25982 16246 32739
f 15642 17209 15234
f 1 1 3341
f 15 35277 16236
f 6815 15765 28719
f 15354 1 1
f 3341 15 39088
f 16191 45789 15981
f 21308 15560 1
f 1 3341 15
f 3332 16192 3550
f 15980 61628 15558
f 1 1 3598
f 13 22177 16166
f 52366 16045 25382
f 15497 1 1
f 3343 13 5277
f 16130 17431 16093
f 19149 15751 1
f 1 3598 13
f 57365 16098 20786
f 16059 40313 15944
f 1 1 3598
f 13 50081 16140
f 31547 16023 64267
f 15908 1 1
f 3086 15 19999
f 16083 30206 16058
f 30668 15977 1
f 1 3086 15
f 51662 16094 39408
f 16070 14475 15930
f 1 1 3598
f 13 3190 16133
f 24805 16112 25383
f 15497 1 1
f 3343 13 17397
f 16169 26173 16036
f 7624 15554 1
f 1 3341 15
f 14710 16148 45073
f 16063 59442 15703
f 1 1 3341
f 15 26532 16158
f 49577 16049 30871
f 15652 1 1
f 3343 1 19029
f 16155 27482 16076
f 1 1 1
f 1 3343 1
f 22895 16216 39497
f 15907 1 1
f 1 1 3343
f 1 28703 16229
f 32529 15837 1
f 1 1 1
f 3343 13 14372
f 16208 30625 15922
f 16041 15502 1
f 1 3343 13
f 17533 16166 7722
f 16034 50942 15651
f 1 1 3343
f 13 52699 16078
f 26249 16066 38720
f 15970 1 1
f 3086 15 57323
f 16075 1156 16061
f 14120 15987 1
f 1 3086 15
f 17688 16116 61242
f 16115 23938 15695
f 1 1 3341
f 15 13655 16189
f 22366 15990 39528
f 15567 1 1
f 13 1 1
f 16257 1 1
f 1 1 1
f 1 13 1
f 1 16257 1
f 1 1 1
f 1 1 3341
f 15 41670 16253
f 52582 15427 2830
f 15013 1 1
f 2570 12 40383
f 16245 52069 15653
f 50734 15243 1
f 1 2315 12
f 39503 16117 56996
f 16110 14488 15725
f 1 1 2315
f 12 56868 16117
f 56536 16109 10287
f 15731 1 1
f 2570 12 42522
f 16249 54656 15573
f 14977 15156 1
f 1 2572 1
f 18934 16155 27672
f 16076 1 1
f 1 1 2572
f 1 40924 16153
f 49228 16079 1
f 1 1 1
f 2827 1 4790
f 16130 55959 16126
f 1 1 1
f 1 2572 1
f 23886 16146 17767
f 16094 1 1
f 1 1 2572
f 1 41263 16206
f 31560 15946 1
f 1 1 1
f 2572 1 23419
f 16201 37402 15967
f 1 1 1
f 1 2827 10
f 61566 16153 6598
f 16074 43010 15393
f 1 1 2827
f 1 32290 16134
f 960 16118 1
f 1 1 1
f 2572 1 13108
f 16244 52430 15693
f 1 1 1
f 1 2572 1
f 13108 16244 52430
f 15693 1 1
f 1 1 2572
f 1 13108 16244
f 52430 15693 1
f 1 1 1
f 2572 1 65059
f 16199 1913 15973
f 1 1 1
f 1 2572 1
f 20897 16154 23745
f 16078 1 1
f 1 1 2827
f 1 4339 16131
f 56860 16124 1
f 1 1 1
f 2827 10 50097
f 16152 34118 16067
f 13745 15584 1
f 1 2570 12
f 19036 16119 25345
f 16115 38182 15675
f 1 1 2570
f 12 61605 16228
f 6620 15820 2125
f 15404 1 1
f 2572 1 27186
f 16225 44667 15869
f 1 1 1
f 1 2572 1
f 13108 16244 52430
f 15693 1 1
f 1 1 12
f 1 1 16257
f 1 1 1
f 1 1 1
f 12 1 1
f 16257 1 1
f 1 1 1
f 1 12 1
f 1 16257 1
f 1 1 1
f 1 1 2572
f 1 13108 16244
f 52430 15693 1
f 1 1 1
f 6682 1 34080
f 16236 55050 15780
f 1 1 1
f 1 26 1
f 1 16257 1
f 1 1 1
f 1 1 26
f 1 1 16257
f 1 1 1
f 1 1 1
f 6682 1 34080
f 16236 55050 15780
f 1 1 1
f 1 6939 26
f 61284 16097 14758
f 16077 44530 15910
f 1 1 6427
f 28 56873 16066
f 44951 16038 29251
f 16025 1 1
f 6682 28 24720
f 16075 1315 16032
f 39505 16023 1
f 1 6684 1
f 13884 16131 37770
f 16124 1 1
f 1 1 28
f 1 1 16257
f 1 1 1
f 1 1 1
f 28 1 1
f 16257 1 1
f 1 1 1
f 1 6684 1
f 20180 16207 50357
f 15943 1 1
f 1 1 6684
f 1 12499 16210
f 15546 15932 1
f 1 1 1
f 6684 1 2987
f 16161 59564 16064
f 1 1 1
f 1 6684 1
f 15910 16185 33719
f 16016 1 1
f 1 1 28
f 1 1 16257
f 1 1 1
f 1 1 1
f 6684 1 19875
f 16193 51577 15999
f 1 1 1
f 1 6684 1
f 30663 16151 4213
f 16084 1 1
f 1 1 6682
f 28 19496 16160
f 54989 15993 63642
f 15882 1 1
f 6682 1 34080
f 16236 55050 15780
f 1 1 1
f 1 6682 28
f 26510 16176 64228
f 15980 52692 15789
f 1 1 26
f 1 1 16257
f 1 1 1
f 1 1 1
f 6682 28 32813
f 16161 61986 16005
f 13852 15849 1
f 1 6939 26
f 29278 16092 22295
f 16019 13967 16019
f 1 1 6939
f 26 61599 16111
f 53723 16077 31505
f 15881 1 1
f 6684 1 52265
f 16142 26547 16101
f 1 1 1
f 1 28 1
f 1 16257 1
f 1 1 1
f 1 1 28
f 1 1 16257
f 1 1 1
f 1 1 1
f 28 1 1
f 16257 1 1
f 1 1 1
f 1 23 1
f 1 16257 1
f 1 1 1
f 1 1 23
f 1 1 16257
f 1 1 1
f 1 1 1
f 23 1 1
f 16257 1 1
f 1 1 1
f 1 23 1
f 1 16257 1
f 1 1 1
f 1 1 5656
f 25 47627 16125
f 51949 16057 62998
f 15893 1 1
f 5911 25 5401
f 16131 60257 16088
f 43457 15760 1
f 1 5911 25
f 25901 16137 23565
f 16086 52462 15695
f 1 1 5656
f 25 58897 16093
f 52431 16077 39492
f 15917 1 1
f 5913 1 23571
f 16192 18397 16002
f 1 1 1
f 1 5913 1
f 16479 16207 65162
f 15943 1 1
f 1 1 5913
f 1 25435 16175
f 14669 16036 1
f 1 1 1
f 5913 1 38074
f 16168 54928 16049
f 1 1 1
f 1 6168 23
f 40860 16130 36246
f 16074 52430 15821
f 1 1 5913
f 23 65219 16137
f 17289 16043 32239
f 15880 1 1
f 5913 1 13363
f 16212 12088 15924
f 1 1 1
f 1 5913 1
f 65508 16179 59
f 16027 1 1
f 1 1 6168
f 23 670 16129
f 51093 16077 52431
f 15821 1 1
f 5911 1 20515
f 16175 24510 16036
f 1 1 1
f 1 23 1
f 1 16257 1
f 1 1 1
f 1 1 5911
f 1 43159 16202
f 23979 15962 1
f 1 1 1
f 23 1 1
f 16257 1 1
f 1 1 1
f 1 5911 1
f 38545 16203 42433
f 15958 1 1
f 1 1 5911
f 25 35261 16121
f 40435 16114 49832
f 15663 1 1
f 5656 25 23876
f 16129 39323 16026
f 22465 15948 1
f 1 6168 23
f 9932 16115 49487
f 16041 12241 15947
f 1 1 5913
f 1 20973 16249
f 49803 15606 1
f 1 1 1
f 5913 1 20973
f 16249 49803 15606
f 1 1 1
f 1 5913 1
f 20973 16249 49803
f 15606 1 1
f 1 1 17
f 1 1 16257
f 1 1 1
f 1 1 1
f 17 1 1
f 16257 1 1
f 1 1 1
f 1 17 1
f 1 16257 1
f 1 1 1
f 1 1 17
f 1 1 16257
f 1 1 1
f 1 1 1
f 1 1 5
f 1 5 1
f 30 1 29
f 1 29 1
f 5069 1 26
f 1 5725 1
f 18 1 6397
f 1 37 1
f 229 1 36
f 1 509 1
f 39 1 781
f 1 40 1
f 1077 1 37
f 1 1381 1
f 38 1 1661
f 1 10 1
f 1949 1 19
f 1 2013 1
f 25 1 2149
f 1 9 1
f 2333 1 25
f 1 2389 1
f 28 1 2573
f 1 24 1
f 2781 1 25
f 1 2957 1
f 25 1 3141
f 1 15 1
f 3325 1 41
f 1 3429 1
f 7 1 3741
f 1 22 1
f 3781 1 26
f 1 3941 1
f 38 1 4133
f 1 34 1
f 4421 1 1
f 1 4677 1
f 1 1 4669
f 1 1 1
f 4661 1 1
f 1 4653 1
f 1 1 4645
f 1 1 1
f 4637 1 25
f 1 4629 1
f 9544 15774 34
f 1 37175 15773
f 35 1 14055
f 16128 45 1
f 51371 16132 46
f 1 31909 16170
f 47 1 18371
f 16173 48 1
f 31242 15424 61
f 1 20910 15374
f 62 1 56237
f 15736 63 1
f 58486 15735 64
f 1 59302 15893
f 65 1 48148
f 15892 66 1
f 5747 15322 99
f 1 58364 15362
f 100 1 10998
f 15720 101 1
f 54052 15722 102
f 1 49012 15896
f 103 1 29232
f 15896 104 1
f 46374 16136 105
f 1 4209 16135
f 106 1 16745
f 16170 107 1
f 50655 16170 108
f 1 19362 16144
f 109 1 40114
f 16148 110 1
f 31591 16162 111
f 1 37609 16181
f 112 1 58330
f 15999 113 1
f 2444 16018 114
f 1 47966 16048
f 115 1 14884
f 16076 116 1
f 44397 15862 117
f 1 62512 15871
f 118 1 29170
f 15885 119 1
f 49454 15889 120
f 1 44545 15755
f 121 1 6962
f 15765 122 1
f 8884 15754 29
f 1 35414 16091
f 45 1 32145
f 16086 46 1
f 8386 15984 47
f 1 35969 15962
f 48 1 19959
f 15868 59 1
f 64347 15758 60
f 1 14055 16005
f 61 1 15176
f 15949 62 1
f 9557 16116 63
f 1 60720 16115
f 64 1 4402
f 16162 65 1
f 35100 16161 66
f 1 40209 15749
f 97 1 54377
f 15755 98 1
f 37424 15934 99
f 1 61016 15942
f 100 1 23258
f 16112 101 1
f 62809 16112 102
f 1 23504 16163
f 103 1 14519
f 16163 104 1
f 48909 16081 105
f 1 48056 16083
f 106 1 59577
f 15988 107 1
f 33849 15979 108
f 1 11817 15764
f 109 1 5903
f 15773 110 1
f 47072 15801 111
f 1 37362 15730
f 112 1 34221
f 15650 113 1
f 60769 15682 114
f 1 22862 15512
f 115 1 19452
f 15617 116 1
f 34323 15815 125
f 1 9345 15714
f 126 1 5152
f 15889 29 1
f 21068 15693 30
f 1 29236 15700
f 31 1 45754
f 15929 32 1
f 26940 15659 41
f 1 29443 15617
f 44 1 64278
f 15769 45 1
f 50301 15756 46
f 1 17210 16133
f 59 1 37489
f 16129 60 1
f 8423 16139 61
f 1 53779 16149
f 62 1 34198
f 16088 63 1
f 52627 16088 64
f 1 35144 15973
f 65 1 17167
f 15976 66 1
f 63160 15625 91
f 1 23185 15697
f 92 1 19098
f 15691 93 1
f 21228 15700 94
f 1 6764 15921
f 95 1 23826
f 15927 96 1
f 7091 16118 97
f 1 172 16121
f 98 1 3624
f 16150 99 1
f 41921 16148 100
f 1 24992 16093
f 101 1 39829
f 16092 102 1
f 59910 15966 103
f 1 40448 15967
f 104 1 46422
f 15743 105 1
f 36257 15749 106
f 1 57758 16118
f 125 1 16758
f 16056 126 1
f 6110 15862 127
f 1 42679 15762
f 128 1 61022
f 15551 129 1
f 47916 15558 130
f 1 38842 16153
f 29 1 44540
f 16103 30 1
f 38490 16105 31
f 1 31412 16158
f 32 1 63518
f 15891 41 1
f 52430 15693 42
